<?xml version="1.0" encoding="utf-8"?>
<!-- Generator: Adobe Illustrator 27.5.0, SVG Export Plug-In . SVG Version: 6.00 Build 0)  -->
<svg version="1.1" id="Layer_1" xmlns="http://www.w3.org/2000/svg" xmlns:xlink="http://www.w3.org/1999/xlink" x="0px" y="0px"
	 viewBox="0 0 1281 642" style="enable-background:new 0 0 1281 642;" xml:space="preserve">
<style type="text/css">
	.st0{fill:none;stroke:#000000;stroke-width:6;stroke-miterlimit:10;}
	.st1{fill:none;stroke:#FFFFFF;stroke-width:3;stroke-miterlimit:10;}
	.st2{fill:none;stroke:#000000;stroke-miterlimit:10;}
	.st3{fill:#39B54A;stroke:#FFFFFF;stroke-miterlimit:10;}
	.st4{fill:#39B54A;stroke:#39B54A;stroke-miterlimit:10;}
	.st5{fill:none;stroke:#FFFFFF;stroke-miterlimit:10;}
</style>
<path class="st0" d="M516.5,114.5"/>
<g>
	<path class="st1" d="M450.5,211.5c-3.9-3-2.3-7.9-3-27c-0.6-16.7-2.1-23.6,1-25c3-1.4,8.8,2.7,15,7c4,2.8,4.9,4,7,4
		c4.1,0,6.3-4.9,11-11c4-5.2,8.3-8.8,17-16c3.8-3.1,9.5-7.9,18-13c1.3-0.8,7.1-4.2,15.5-8c11.1-4.9,20.7-7.6,26.5-9
		c23.1-5.7,42.1-4.6,53-4c17.3,0.9,29.9,3.9,39,6c11,2.6,15.9,4.5,19,6c6.2,2.9,15,8,15,8c0,0-1.7,8.7-6,11c-3.7,2-7.8-1.4-17-5
		c-2.2-0.9-7.5-2.2-18-5c-8.9-2.3-27.1-7.1-50-6c-17.3,0.8-29.8,4.6-34,6c-7.6,2.5-12.8,5-19,8c-5.2,2.5-18.3,9.1-34,21
		c-18.8,14.2-18.3,18.6-18,20c0.9,4,6.4,7,12,10c6.8,3.7,9.8,3.4,10,5c0.3,2.5-7.2,4.9-38,14C460,212.2,453.7,214,450.5,211.5z"/>
	<path class="st1" d="M727.7,327.4c-0.1-0.1-0.5-0.4-1.1-0.9c-0.4-0.3-0.7-0.6-1.1-1c-2.6-0.8-4.9-2.2-6.7-4.2
		c-12.1,17.8-25.7,29.1-32.5,34.7c-7.5,6.2-10.6,9.9-14.6,11.7c-3.8,1.7-6.9,2.2-8.2,4.9c-1.8,3.6,0.7,8.5,3,12l0,0
		c12.3-6.9,16-9,16-9c17.2-9.8,19.3-11.5,21-13c1.8-1.6,4.4-4.4,9.6-9.9c6.1-6.5,7.8-8.7,9-10.4
		C728.5,333.2,728.5,328.1,727.7,327.4z"/>
	<path class="st1" d="M477.5,333.1c0.1-0.1,0.5-0.3,1.2-0.7c0.4-0.2,0.9-0.4,1.3-0.7c1.7-2.2,3.7-3.9,6.3-4.8
		c-12.6-17.5-18.6-34.1-21.5-42.4c-3.2-9.1-5.7-13.4-6-17.7c-0.3-4.1,0.3-7.2-1.8-9.4c-2.7-2.9-8.2-2.3-12.3-1.3l0,0
		c2.3,13.9,3,18.1,3,18.1c3.3,19.5,4.2,22.1,5,24.2c0.9,2.2,2.6,5.6,6,12.4c4,8,5.5,10.3,6.7,12
		C471.8,331.8,476.6,333.6,477.5,333.1z"/>
	<path class="st1" d="M693.1,214.1c1.5,0.5,2.5-2.4,8.7-7.1c5-3.8,10-7.6,14-6.8c1.4,0.3,5.6,1.7,10.9,24.6
		c4.4,19.2,5.1,33.8,5.2,39.6c0.2,6.8,0.4,12.7-0.5,20.6c-0.1,0.6-0.1,1.3-0.2,2.1c5.8-0.3,11.5-0.7,17.1-1.8
		c0.8-5.7,1.6-13.3,1.7-22.1c0-9.2-0.7-15.9-0.9-17.4c-1.2-9.8-3.2-17-4.5-21.7c-3-10.9-4.6-16.3-7.6-22.1
		c-3.6-6.8-7.2-10.8-5.5-14.5c0.8-1.9,2.4-2.2,6.5-4.7c6.5-3.9,12.6-7.6,12.5-10.8c0-3.4-6.9-4.8-22.4-11.2
		c-17.7-7.2-21.6-10.6-25.9-8.3c-3.6,1.9-4.5,8.4-6.3,21.3C691.6,205.6,690.7,213.4,693.1,214.1z"/>
	<path class="st1" d="M601.6,361c-1.1,1.1,1.1,3.3,2.6,10.9c1.3,6.2,2.6,12.4,0.1,15.6c-0.8,1.1-3.9,4.3-26.9-0.8
		c-19.2-4.3-32.7-10-38-12.4c-6.2-2.8-11.6-5.1-18.4-9.3c-0.5-0.3-1.1-0.7-1.8-1.1c-2.2,5.3-4.4,10.7-5.7,16.2
		c4.8,3.2,11.3,7.2,19.3,11c8.3,4,14.7,6.2,16.1,6.7c9.3,3.2,16.7,4.5,21.6,5.3c11.1,1.9,16.7,2.9,23.2,2.6
		c7.7-0.3,12.8-1.8,15.5,1.3c1.4,1.6,1,3.1,1.5,7.9c0.7,7.5,1.4,14.6,4.4,16c3.1,1.5,7.3-4.1,19.7-15.4
		c14.1-12.9,18.9-14.9,18.7-19.7c-0.2-4-5.6-7.7-16.5-14.8C610,363.2,603.3,359.1,601.6,361z"/>
	<path class="st2" d="M649.5,331.5"/>
	<path class="st1" d="M705.2,392.9"/>
	<path class="st3" d="M631.5,169.5c3.4-4.1,0.3-11.5-2-15c-8.3-12.8-28.8-11.2-31-11c-5.6,0.5-18.6,1.7-25,12
		c-5.5,8.8-4.1,21.1,1,29c6.4,9.8,16.9,10.4,20,21c0.4,1.5,1.4,5.2,0,9c-1,2.6-2.7,4.1-6,7c-9.2,8.1-7.5,7-10,9
		c-20.9,16.3-56,34-56,34c-17.6,8.9-26.4,13.3-28,14c-2.9,1.2-4.6,2.1-8,4c-4.9,2.7-7.4,4.1-8,6c-1.3,4.2,3.5,11,9,12
		c4.8,0.9,8.4-3.1,15-8c7.3-5.4,16-8.6,24-13c22.8-12.4,56.5-30.3,75-49c2-2,6-6.3,8-13c0.5-1.6,3.8-12.8-2-21
		c-5.1-7.2-11.8-4.4-18-12c-3.7-4.6-7-12.6-4-19c4.5-9.5,20.1-9.4,27-6c1.3,0.7,4.5,2.2,5,5c0.4,2.3-1.5,3.5-1,5
		C617.6,172.5,627.7,174.1,631.5,169.5z"/>
	<path class="st4" d="M628.5,237.5c-0.8,0.4-1.3,0.9-3,4c-1.9,3.5-2.9,5.2-3,6c-0.7,5.2,10.2,10.6,11,11c18,9,34.6,20.8,52,31
		c18.5,10.9,46.1,29.8,54,32c1.4,0.4,4.3,0.8,7,3c1.9,1.6,2.6,3,5,4c2.2,0.9,3,0.2,4,1c2.2,1.6,2.2,7.1,0,11c-3.3,5.9-11.3,7.7-17,9
		c-6.7,1.5-9.3,0.7-11,3c-2.5,3.3-1,10.4,3,13c3.9,2.5,10-0.3,22-6c7.9-3.7,11.9-5.6,14-8c7.5-8.4,8.2-22.9,2-31
		c-2.9-3.9-6.8-5.5-8-6c-0.2-0.1-21.8-12.7-65-38c-27.4-16-47.8-28-53-33c-2.7-2.6-4.4-3.4-8-5C631.3,237,629.7,236.9,628.5,237.5z"
		/>
	<path class="st4" d="M446.5,304.5c3.1-0.7,6.6,2.6,9,5c1.9,1.9,2.9,2.8,3,4c0.3,3.3-5,4.2-8,10c-0.4,0.7-3,5.7-1,9
		c1.4,2.3,4.5,2.8,6,3c50.4,7.1,60,7,60,7c1.6,0,14.3-0.1,28,0c38.3,0.3,37.9,1.6,59,1c10-0.3,25.5-1,38-1c9.3,0,13.9,0,14,0
		c5.4,0.3,7.4,0.8,11,0c1.4-0.3,3.2-0.9,6-1c2.8-0.2,4.8-0.2,6,1c0.8,0.8,0.7,1.5,1,6c0.4,5.6,0.5,6.2,0,7c-1.3,2-4.4,2-8,2
		c-9-0.1-15.9-0.8-19-1c-6.2-0.4-9.8,0.3-16,1c-11,1.2-23.3,1.5-48,2c-47.2,1-70.7-2.6-98-3c-0.2,0-6.6-0.1-15-1
		c-10.2-1.1-14.4-2.5-16-3c-4-1.4-3-1.6-11-5c-8.9-3.8-10.4-3.7-12-6c-1.3-2-1.6-5.3-2-12c-0.2-3.7-0.4-5.5,0-7
		c0.9-3.8,2.9-4.2,7-10C444.4,306.9,444.3,305,446.5,304.5z"/>
	<path class="st5" d="M386.5,360.5"/>
</g>
</svg>
